<svg width="11" height="12" viewBox="0 0 11 12" fill="none" xmlns="http://www.w3.org/2000/svg">
<path d="M5.49996 1.41663C3.72621 1.41663 2.29163 2.85121 2.29163 4.62496C2.29163 7.03121 5.49996 10.5833 5.49996 10.5833C5.49996 10.5833 8.70829 7.03121 8.70829 4.62496C8.70829 2.85121 7.27371 1.41663 5.49996 1.41663ZM5.49996 5.77079C5.19607 5.77079 4.90462 5.65007 4.68973 5.43519C4.47485 5.2203 4.35413 4.92885 4.35413 4.62496C4.35413 4.32107 4.47485 4.02962 4.68973 3.81473C4.90462 3.59985 5.19607 3.47913 5.49996 3.47913C5.80385 3.47913 6.0953 3.59985 6.31019 3.81473C6.52507 4.02962 6.64579 4.32107 6.64579 4.62496C6.64579 4.92885 6.52507 5.2203 6.31019 5.43519C6.0953 5.65007 5.80385 5.77079 5.49996 5.77079V5.77079Z" fill="#656565"/>
</svg>
