<svg width="16" height="15" viewBox="0 0 16 15" fill="none" xmlns="http://www.w3.org/2000/svg">
<path d="M6.125 0.625H9.875V1.875H6.125V0.625ZM12.3938 4.61875L13.2812 3.73125C13.0125 3.4125 12.7188 3.1125 12.4 2.85L11.5125 3.7375C10.5171 2.93645 9.27771 2.49981 8 2.5C6.50816 2.5 5.07742 3.09263 4.02252 4.14752C2.96763 5.20242 2.375 6.63316 2.375 8.125C2.375 11.2312 4.8875 13.75 8 13.75C9.05894 13.7506 10.0965 13.452 10.9932 12.8887C11.8899 12.3254 12.6092 11.5203 13.0684 10.5661C13.5275 9.61186 13.7078 8.54735 13.5885 7.49516C13.4691 6.44296 13.055 5.44588 12.3938 4.61875ZM8.625 8.75H7.375V5H8.625V8.75Z" fill="white"/>
</svg>
