<svg width="15" height="15" viewBox="0 0 15 15" fill="none" xmlns="http://www.w3.org/2000/svg">
<path d="M5.625 0.625H9.375V1.875H5.625V0.625ZM11.8938 4.61875L12.7813 3.73125C12.5125 3.4125 12.2188 3.1125 11.9 2.85L11.0125 3.7375C10.0171 2.93645 8.77771 2.49981 7.5 2.5C6.00816 2.5 4.57742 3.09263 3.52252 4.14752C2.46763 5.20242 1.875 6.63316 1.875 8.125C1.875 11.2312 4.3875 13.75 7.5 13.75C8.55894 13.7506 9.59651 13.452 10.4932 12.8887C11.3899 12.3254 12.1092 11.5203 12.5684 10.5661C13.0275 9.61186 13.2078 8.54735 13.0885 7.49516C12.9691 6.44296 12.555 5.44588 11.8938 4.61875V4.61875ZM8.125 8.75H6.875V5H8.125V8.75Z" fill="black"/>
</svg>
