<svg width="185" height="53" viewBox="0 0 185 53" fill="none" xmlns="http://www.w3.org/2000/svg">
<path fill-rule="evenodd" clip-rule="evenodd" d="M22.9943 52.0007H0V50.8634H2.54747V1.74601H0V0.608704H13.6089V1.74601H10.7932V50.8634H13.0055C17.4301 50.8634 18.7708 49.5839 22.0557 31.4581H22.9943V52.0007ZM35.453 52.0007H28.0118V50.8634C29.7548 50.7212 30.5592 50.2237 30.9615 47.6647L38.7379 0.608704H43.6318L50.2686 50.8634H52.682V52.0007H39.4754V50.8634H42.1569L41.1513 41.4806H33.3078L32.4363 48.5888C32.2352 50.2948 34.3134 50.8634 35.453 50.8634V52.0007ZM33.5089 40.3433H40.9502L37.8664 14.825H37.7324L33.5089 40.3433ZM54.4712 1.74601V0.608704H67.8789V1.74601H65.3315V48.0202C65.3315 50.0815 65.8678 51.1477 68.7504 51.1477C71.432 51.1477 74.3146 48.6599 74.3146 41.4806V5.08685C74.3146 2.45683 72.9739 1.74601 70.8957 1.74601V0.608704H78.471V1.74601C76.661 1.88817 75.7225 2.59899 75.7225 5.08685V40.8409C75.7225 50.2237 71.9683 52.7826 66.0689 52.7826C60.7728 52.7826 57.0857 50.0815 57.0857 42.5469V1.74601H54.4712ZM98.7254 45.8166V31.5292C98.7254 26.98 97.3847 26.4113 94.0327 26.4113V50.8634H96.6472V52.0007H83.2395V50.8634H85.787V1.74601H83.2395V0.608704H94.5691C103.15 0.608704 106.971 6.50848 106.971 12.9058C106.971 19.5875 104.424 23.8524 98.3903 25.8427V25.9848C104.156 28.2595 106.636 30.3919 106.636 38.9928V45.9588C106.636 48.731 107.038 50.0104 107.977 50.0104C109.586 50.0104 110.055 48.4466 110.457 43.542H111.53C111.664 51.361 108.58 52.4272 105.094 52.4272C100.737 52.4272 98.7254 50.2948 98.7254 45.8166ZM94.0327 1.74601V25.4162C97.6528 25.4162 98.3903 24.35 98.3903 22.0754V5.22901C98.3903 2.10142 97.0495 1.74601 94.0327 1.74601ZM129.783 52.0007H115.436V50.8634H118.386V1.74601H115.436V0.608704H129.582V1.74601H126.632V50.8634H129.783V52.0007ZM135.048 22.5729V0.608704H159.383V22.5729H158.445C156.233 7.64579 154.087 1.67493 151.473 1.60385H151.339V50.8634H154.154V52.0007H140.277V50.8634H143.093V1.60385H142.959C140.344 1.67493 138.199 7.64579 135.987 22.5729H135.048ZM165.961 20.2272V0.608704H185L172.866 50.8634H175.548C179.972 50.8634 181.313 47.4515 183.927 30.8895H184.933V52.0007H164.62L176.687 1.74601H173.939C171.257 1.74601 168.71 5.6555 166.967 20.2272H165.961Z" fill="white"/>
</svg>
